<svg width="22" height="28" viewBox="0 0 22 28" fill="none" xmlns="http://www.w3.org/2000/svg">
<g filter="url(#filter0_d_101_875)">
<path d="M17.7188 9.39236H12.25C11.7527 9.39236 11.2758 9.19482 10.9242 8.84319C10.5725 8.49156 10.375 8.01465 10.375 7.51736V2.04861C10.375 2.00717 10.3585 1.96743 10.3292 1.93813C10.2999 1.90883 10.2602 1.89236 10.2188 1.89236H6.625C5.96196 1.89236 5.32607 2.15576 4.85723 2.6246C4.38839 3.09344 4.125 3.72932 4.125 4.39236V16.8924C4.125 17.5554 4.38839 18.1913 4.85723 18.6601C5.32607 19.129 5.96196 19.3924 6.625 19.3924H15.375C16.038 19.3924 16.6739 19.129 17.1428 18.6601C17.6116 18.1913 17.875 17.5554 17.875 16.8924V9.54861C17.875 9.50717 17.8585 9.46743 17.8292 9.43813C17.7999 9.40883 17.7602 9.39236 17.7188 9.39236ZM14.125 15.6424H7.875C7.70924 15.6424 7.55027 15.5765 7.43306 15.4593C7.31585 15.3421 7.25 15.1831 7.25 15.0174C7.25 14.8516 7.31585 14.6926 7.43306 14.5754C7.55027 14.4582 7.70924 14.3924 7.875 14.3924H14.125C14.2908 14.3924 14.4497 14.4582 14.5669 14.5754C14.6842 14.6926 14.75 14.8516 14.75 15.0174C14.75 15.1831 14.6842 15.3421 14.5669 15.4593C14.4497 15.5765 14.2908 15.6424 14.125 15.6424ZM14.125 12.5174H7.875C7.70924 12.5174 7.55027 12.4515 7.43306 12.3343C7.31585 12.2171 7.25 12.0581 7.25 11.8924C7.25 11.7266 7.31585 11.5676 7.43306 11.4504C7.55027 11.3332 7.70924 11.2674 7.875 11.2674H14.125C14.2908 11.2674 14.4497 11.3332 14.5669 11.4504C14.6842 11.5676 14.75 11.7266 14.75 11.8924C14.75 12.0581 14.6842 12.2171 14.5669 12.3343C14.4497 12.4515 14.2908 12.5174 14.125 12.5174Z" fill="#CAB3FF"/>
<path d="M17.3758 8.00916L11.7582 2.39158C11.7473 2.38072 11.7334 2.37334 11.7183 2.37035C11.7032 2.36736 11.6875 2.36891 11.6733 2.37479C11.659 2.38068 11.6469 2.39064 11.6383 2.40343C11.6297 2.41622 11.6251 2.43126 11.625 2.44666V7.51736C11.625 7.68313 11.6908 7.8421 11.8081 7.95931C11.9253 8.07652 12.0842 8.14236 12.25 8.14236H17.3207C17.3361 8.1423 17.3511 8.13768 17.3639 8.12909C17.3767 8.12051 17.3867 8.10833 17.3926 8.09409C17.3985 8.07986 17.4 8.0642 17.397 8.04909C17.394 8.03398 17.3866 8.02009 17.3758 8.00916Z" fill="#CAB3FF"/>
</g>
<defs>
<filter id="filter0_d_101_875" x="-3" y="0.642365" width="28" height="28" filterUnits="userSpaceOnUse" color-interpolation-filters="sRGB">
<feFlood flood-opacity="0" result="BackgroundImageFix"/>
<feColorMatrix in="SourceAlpha" type="matrix" values="0 0 0 0 0 0 0 0 0 0 0 0 0 0 0 0 0 0 127 0" result="hardAlpha"/>
<feOffset dy="4"/>
<feGaussianBlur stdDeviation="2"/>
<feComposite in2="hardAlpha" operator="out"/>
<feColorMatrix type="matrix" values="0 0 0 0 0 0 0 0 0 0 0 0 0 0 0 0 0 0 0.25 0"/>
<feBlend mode="normal" in2="BackgroundImageFix" result="effect1_dropShadow_101_875"/>
<feBlend mode="normal" in="SourceGraphic" in2="effect1_dropShadow_101_875" result="shape"/>
</filter>
</defs>
</svg>
