<svg width="28" height="26" viewBox="0 0 28 26" fill="none" xmlns="http://www.w3.org/2000/svg">
<g filter="url(#filter0_d_101_873)">
<path d="M17.1243 10.6424C16.3212 10.6424 15.5447 10.2838 14.9368 9.63299C14.3458 8.99822 13.9849 8.15174 13.9212 7.25018C13.8533 6.28846 14.1466 5.40408 14.747 4.75955C15.3474 4.11502 16.1868 3.76736 17.1243 3.76736C18.0552 3.76736 18.897 4.12127 19.4954 4.76424C20.0997 5.41346 20.3939 6.29627 20.3259 7.24979C20.2607 8.15252 19.9001 8.99861 19.3103 9.6326C18.704 10.2838 17.9279 10.6424 17.1243 10.6424Z" fill="#CAB3FF"/>
<path d="M22.274 17.5174H11.9751C11.8095 17.5183 11.646 17.4811 11.497 17.4089C11.348 17.3366 11.2176 17.2311 11.1158 17.1006C11.0077 16.959 10.9332 16.7949 10.8976 16.6204C10.862 16.4459 10.8663 16.2657 10.9103 16.0931C11.2392 14.7724 12.054 13.6771 13.2665 12.926C14.3427 12.2596 15.7126 11.8924 17.1243 11.8924C18.5638 11.8924 19.8978 12.2439 20.9802 12.9099C22.1954 13.6572 23.0115 14.7588 23.3388 16.0955C23.3822 16.2682 23.3861 16.4484 23.3501 16.6228C23.3141 16.7971 23.2392 16.9611 23.131 17.1025C23.0293 17.2325 22.8991 17.3375 22.7506 17.4094C22.602 17.4813 22.439 17.5182 22.274 17.5174Z" fill="#CAB3FF"/>
<path d="M9.74153 10.7986C8.36692 10.7986 7.15833 9.52049 7.04622 7.94979C6.99075 7.1451 7.24153 6.40096 7.74935 5.85526C8.25169 5.31502 8.96028 5.01736 9.74153 5.01736C10.5228 5.01736 11.2259 5.31658 11.731 5.85994C12.2427 6.40994 12.4927 7.15252 12.4341 7.95057C12.322 9.52088 11.1138 10.7986 9.74153 10.7986Z" fill="#CAB3FF"/>
<path d="M12.3064 12.0271C11.6193 11.6912 10.7275 11.5232 9.74192 11.5232C8.59114 11.5232 7.47356 11.8232 6.59466 12.3678C5.59817 12.9861 4.92786 13.8865 4.65716 14.9736C4.61754 15.13 4.6138 15.2933 4.6462 15.4513C4.6786 15.6093 4.74631 15.758 4.84427 15.8861C4.93722 16.0054 5.05629 16.1019 5.19234 16.1679C5.32839 16.234 5.47778 16.2681 5.62903 16.2674H9.96497C10.0382 16.2674 10.109 16.2417 10.1652 16.1948C10.2214 16.1479 10.2593 16.0827 10.2724 16.0107C10.2767 15.9861 10.2822 15.9615 10.2884 15.9373C10.6197 14.6068 11.3958 13.4826 12.5427 12.6631C12.5849 12.6327 12.6188 12.5922 12.6414 12.5454C12.664 12.4985 12.6746 12.4468 12.6721 12.3949C12.6697 12.3429 12.6543 12.2924 12.6274 12.2479C12.6005 12.2034 12.5629 12.1663 12.5181 12.14C12.4568 12.1041 12.3865 12.0662 12.3064 12.0271Z" fill="#CAB3FF"/>
</g>
<defs>
<filter id="filter0_d_101_873" x="0" y="0.642365" width="28" height="28" filterUnits="userSpaceOnUse" color-interpolation-filters="sRGB">
<feFlood flood-opacity="0" result="BackgroundImageFix"/>
<feColorMatrix in="SourceAlpha" type="matrix" values="0 0 0 0 0 0 0 0 0 0 0 0 0 0 0 0 0 0 127 0" result="hardAlpha"/>
<feOffset dy="4"/>
<feGaussianBlur stdDeviation="2"/>
<feComposite in2="hardAlpha" operator="out"/>
<feColorMatrix type="matrix" values="0 0 0 0 0 0 0 0 0 0 0 0 0 0 0 0 0 0 0.25 0"/>
<feBlend mode="normal" in2="BackgroundImageFix" result="effect1_dropShadow_101_873"/>
<feBlend mode="normal" in="SourceGraphic" in2="effect1_dropShadow_101_873" result="shape"/>
</filter>
</defs>
</svg>
