<svg width="16" height="15" viewBox="0 0 16 15" fill="none" xmlns="http://www.w3.org/2000/svg">
<g filter="url(#filter0_d_203_126)">
<path d="M8 0.5C6.71442 0.5 5.45772 0.881218 4.3888 1.59545C3.31988 2.30968 2.48676 3.32484 1.99479 4.51256C1.50282 5.70028 1.37409 7.00721 1.6249 8.26809C1.8757 9.52896 2.49477 10.6872 3.40381 11.5962C4.31285 12.5052 5.47104 13.1243 6.73192 13.3751C7.99279 13.6259 9.29973 13.4972 10.4874 13.0052C11.6752 12.5132 12.6903 11.6801 13.4046 10.6112C14.1188 9.54229 14.5 8.28558 14.5 7C14.4982 5.27665 13.8128 3.62441 12.5942 2.40582C11.3756 1.18722 9.72335 0.50182 8 0.5ZM8 11C7.85167 11 7.70666 10.956 7.58333 10.8736C7.45999 10.7912 7.36386 10.6741 7.30709 10.537C7.25033 10.4 7.23548 10.2492 7.26441 10.1037C7.29335 9.9582 7.36478 9.82456 7.46967 9.71967C7.57456 9.61478 7.7082 9.54335 7.85368 9.51441C7.99917 9.48547 8.14997 9.50033 8.28701 9.55709C8.42406 9.61386 8.54119 9.70999 8.6236 9.83332C8.70602 9.95666 8.75 10.1017 8.75 10.25C8.75 10.4489 8.67098 10.6397 8.53033 10.7803C8.38968 10.921 8.19892 11 8 11ZM8.5 7.955V8C8.5 8.13261 8.44732 8.25979 8.35356 8.35355C8.25979 8.44732 8.13261 8.5 8 8.5C7.86739 8.5 7.74022 8.44732 7.64645 8.35355C7.55268 8.25979 7.5 8.13261 7.5 8V7.5C7.5 7.36739 7.55268 7.24021 7.64645 7.14645C7.74022 7.05268 7.86739 7 8 7C8.82688 7 9.5 6.4375 9.5 5.75C9.5 5.0625 8.82688 4.5 8 4.5C7.17313 4.5 6.5 5.0625 6.5 5.75V6C6.5 6.13261 6.44732 6.25979 6.35356 6.35355C6.25979 6.44732 6.13261 6.5 6 6.5C5.86739 6.5 5.74022 6.44732 5.64645 6.35355C5.55268 6.25979 5.5 6.13261 5.5 6V5.75C5.5 4.50938 6.62125 3.5 8 3.5C9.37875 3.5 10.5 4.50938 10.5 5.75C10.5 6.83625 9.64 7.74563 8.5 7.955Z" fill="#D1D5DB"/>
</g>
<defs>
<filter id="filter0_d_203_126" x="-2.5" y="0.5" width="21" height="21" filterUnits="userSpaceOnUse" color-interpolation-filters="sRGB">
<feFlood flood-opacity="0" result="BackgroundImageFix"/>
<feColorMatrix in="SourceAlpha" type="matrix" values="0 0 0 0 0 0 0 0 0 0 0 0 0 0 0 0 0 0 127 0" result="hardAlpha"/>
<feOffset dy="4"/>
<feGaussianBlur stdDeviation="2"/>
<feComposite in2="hardAlpha" operator="out"/>
<feColorMatrix type="matrix" values="0 0 0 0 0 0 0 0 0 0 0 0 0 0 0 0 0 0 0.25 0"/>
<feBlend mode="normal" in2="BackgroundImageFix" result="effect1_dropShadow_203_126"/>
<feBlend mode="normal" in="SourceGraphic" in2="effect1_dropShadow_203_126" result="shape"/>
</filter>
</defs>
</svg>
