<svg width="34" height="36" viewBox="0 0 34 36" fill="none" xmlns="http://www.w3.org/2000/svg">
<g opacity="0.4" filter="url(#filter0_dd_328_40)">
<path d="M26.8454 13.4869C26.8325 13.4869 26.8207 13.4905 26.8079 13.4906C27.0448 12.9427 27.1775 12.3392 27.1775 11.7043C27.1775 9.21472 25.1592 7.19643 22.6697 7.19643C21.7898 7.19643 20.9715 7.45251 20.2776 7.88845C19.3391 5.60734 17.097 3.99996 14.4773 3.99996C11.0133 3.99996 8.20528 6.80796 8.20528 10.272C8.20528 10.5338 8.22648 10.7903 8.25766 11.0436C8.23999 11.0434 8.22294 11.041 8.20528 11.041C5.88285 11.041 3.99997 12.9238 3.99997 15.2464C3.99997 17.5688 5.88285 19.4516 8.20528 19.4516H26.8454C28.4926 19.4516 29.8277 18.1164 29.8277 16.4693C29.8277 14.8221 28.4926 13.4869 26.8454 13.4869Z" fill="white"/>
<path d="M12.2647 26.7994C11.7581 27.8533 10.493 28.2971 9.43904 27.7905C8.38512 27.2839 7.94134 26.0188 8.44795 24.9649C8.95471 23.9109 12.2307 21.9825 12.2307 21.9825C12.2307 21.9825 12.7713 25.7455 12.2647 26.7994Z" fill="white"/>
<path d="M17.5297 26.7994C17.0233 27.8533 15.7581 28.2971 14.7042 27.7905C13.6501 27.2839 13.2065 26.0188 13.7131 24.9649C14.2199 23.9109 17.4959 21.9825 17.4959 21.9825C17.4959 21.9825 18.0365 25.7455 17.5297 26.7994Z" fill="white"/>
<path d="M22.8693 26.7994C22.3627 27.8533 21.0975 28.2971 20.0436 27.7905C18.9897 27.2839 18.5461 26.0188 19.0525 24.9649C19.5593 23.9109 22.8353 21.9825 22.8353 21.9825C22.8353 21.9825 23.3759 25.7455 22.8693 26.7994Z" fill="white"/>
</g>
<defs>
<filter id="filter0_dd_328_40" x="-2.66666" y="0" width="40" height="40" filterUnits="userSpaceOnUse" color-interpolation-filters="sRGB">
<feFlood flood-opacity="0" result="BackgroundImageFix"/>
<feColorMatrix in="SourceAlpha" type="matrix" values="0 0 0 0 0 0 0 0 0 0 0 0 0 0 0 0 0 0 127 0" result="hardAlpha"/>
<feOffset dy="4"/>
<feGaussianBlur stdDeviation="2"/>
<feComposite in2="hardAlpha" operator="out"/>
<feColorMatrix type="matrix" values="0 0 0 0 0 0 0 0 0 0 0 0 0 0 0 0 0 0 0.25 0"/>
<feBlend mode="normal" in2="BackgroundImageFix" result="effect1_dropShadow_328_40"/>
<feColorMatrix in="SourceAlpha" type="matrix" values="0 0 0 0 0 0 0 0 0 0 0 0 0 0 0 0 0 0 127 0" result="hardAlpha"/>
<feOffset dy="4"/>
<feGaussianBlur stdDeviation="2"/>
<feComposite in2="hardAlpha" operator="out"/>
<feColorMatrix type="matrix" values="0 0 0 0 0 0 0 0 0 0 0 0 0 0 0 0 0 0 0.25 0"/>
<feBlend mode="normal" in2="effect1_dropShadow_328_40" result="effect2_dropShadow_328_40"/>
<feBlend mode="normal" in="SourceGraphic" in2="effect2_dropShadow_328_40" result="shape"/>
</filter>
</defs>
</svg>
